<svg id="Layer_1" data-name="Layer 1" xmlns="http://www.w3.org/2000/svg" viewBox="0 0 197.83 75.87"><defs><style>.cls-1{fill:#fff;}</style></defs><title>Artboard 1</title><path class="cls-1" d="M186.18,34.68h11.66v6.83H186c-.46,1.91-.87,3.48-1.23,5.07a37.85,37.85,0,0,1-74.2-2.44c-.86-5.37-4-7.72-11.11-8.2-6.47-.44-10.94,2.92-12.28,9.22-3.87,18.25-19,30.72-37.28,30.7S16.47,63.39,12.8,45.06c-.55-2.73-1.49-3.7-4.16-3.54s-5.58,0-8.64,0V34.72a63.6,63.6,0,0,0,8.87-.13c1.34-.19,3.43-1.61,3.58-2.69C14.65,16.16,28.4.34,49.86.06,67.94-.18,82.07,11.61,87.23,30.73a7.87,7.87,0,0,0,.51.94,27,27,0,0,1,22.28.11C117,10.7,130.14-.2,148.13,0,167.14.22,179.32,11.25,186.18,34.68Zm-7.3,3.45A31.09,31.09,0,0,0,148,6.81a31.48,31.48,0,0,0-31.32,31,31.46,31.46,0,0,0,31,31.31A31,31,0,0,0,178.88,38.13ZM81,38.11a31.31,31.31,0,0,0-31-31.29A31.59,31.59,0,0,0,18.72,37.87C18.64,54.72,32.81,69,49.84,69.18,66.7,69.38,81,55.16,81,38.11Z"/></svg>